<?xml version="1.0"?>
<svg width="640" height="480" xmlns="http://www.w3.org/2000/svg" xmlns:svg="http://www.w3.org/2000/svg">
 <!-- Created with SVG-edit - https://github.com/SVG-Edit/svgedit-->
 <defs>
  <marker id="se_marker_start_svg_10" markerHeight="5" markerUnits="strokeWidth" markerWidth="5" orient="auto" refX="50" refY="50" se_type="rightarrow" viewBox="0 0 100 100">
   <path d="m100,50l-100,40l30,-40l-30,-40z" fill="#7f3f00" stroke="#7f3f00" stroke-width="10"/>
  </marker>
  <marker id="se_marker_end_svg_10" markerHeight="5" markerUnits="strokeWidth" markerWidth="5" orient="auto" refX="50" refY="50" se_type="leftarrow" viewBox="0 0 100 100">
   <path d="m0,50l100,40l-30,-40l30,-40z" fill="#7f3f00" stroke="#7f3f00" stroke-width="10"/>
  </marker>
 </defs>
 <g class="layer">
  <title>Layer 1</title>
  <g id="svg_33">
   <circle cx="331.163391" cy="221.290614" fill="#7f3f00" id="svg_1" r="142.789886" stroke="#ffffff" stroke-width="5"/>
   <text fill="#ffffff" font-family="Monospace" font-size="24" font-style="italic" id="svg_3" stroke="#000000" stroke-dasharray="null" stroke-linecap="null" stroke-linejoin="null" stroke-width="0" text-anchor="middle" transform="matrix(11.4233, 0, 0, 10.5005, -1082.99, -1349.37)" x="116.911888" xml:space="preserve" y="156.378852">S</text>
   <text fill="#ffffff" font-family="Monospace" font-size="24" font-style="italic" id="svg_2" stroke="#000000" stroke-dasharray="null" stroke-linecap="null" stroke-linejoin="null" stroke-width="0" text-anchor="middle" transform="matrix(11.4233, 0, 0, 10.5005, -1082.99, -1349.37)" x="127.345068" xml:space="preserve" y="156.326782">P</text>
   <text fill="#ffffff" font-family="Monospace" font-size="24" font-style="italic" id="svg_4" stroke="#000000" stroke-dasharray="null" stroke-linecap="null" stroke-linejoin="null" stroke-width="0" text-anchor="middle" transform="matrix(9.37567, 0, 0, 9.51709, -827.007, -1206.65)" x="132.12854" xml:space="preserve" y="150.830137">_</text>
   <text fill="#ffffff" font-family="Monospace" font-size="24" font-style="italic" id="svg_5" stroke="#000000" stroke-dasharray="null" stroke-linecap="null" stroke-linejoin="null" stroke-width="0" text-anchor="middle" transform="matrix(5.52421, 0, 0, 10.5005, -321.929, -1349.37)" x="126.187888" xml:space="preserve" y="136.984722">_</text>
   <text fill="#7f3f00" font-family="Serif" font-size="20" font-style="normal" font-weight="bold" id="svg_6" stroke="#ffffff" stroke-dasharray="null" stroke-linecap="null" stroke-linejoin="null" stroke-width="0" text-anchor="middle" transform="matrix(2.1194, 0, 0, 1.95967, -181.484, -369.829)" x="242.531747" xml:space="preserve" y="402.691781">SEBASTIAN</text>
   <line fill="none" id="svg_7" stroke="#ffffff" stroke-dasharray="null" stroke-linecap="null" stroke-linejoin="null" stroke-width="5" x1="136.003058" x2="505.708196" y1="446.8308" y2="436.340559"/>
   <line fill="none" id="svg_9" stroke="#ffffff" stroke-dasharray="null" stroke-linecap="null" stroke-linejoin="null" stroke-width="5" x1="567.554794" x2="155.244218" y1="442.89696" y2="466.500003"/>
   <polyline fill="none" id="svg_10" marker-end="url(#se_marker_end_svg_10)" marker-start="url(#se_marker_start_svg_10)" points="189.60342407226562,431.095458984375 333.2249450683594,431.095458984375 476.846435546875,431.095458984375 " stroke="#7f3f00" stroke-width="2"/>
   <text fill="#7f3f00" font-family="Serif" font-size="11" font-style="normal" font-weight="bold" id="svg_11" stroke="#ffffff" stroke-dasharray="null" stroke-linecap="null" stroke-linejoin="null" stroke-width="0" text-anchor="middle" transform="matrix(2.1194, 0, 0, 1.95967, -181.484, -369.829)" x="241.46575" xml:space="preserve" y="419.973407">PEREZ</text>
   <path d="m407.391593,383.213272c17.256886,-1.87967 32.494003,-6.195685 40.822782,-11.56335c8.922956,-5.750586 11.337949,-1.873772 2.586909,4.152779c-3.681646,2.535451 -1.736803,3.883055 8.751835,6.064239c25.025056,5.204132 43.663119,-5.378747 63.482167,-36.045863c16.769904,-25.948919 33.142332,-44.246257 45.368107,-50.70198l9.962539,-5.260605l-14.551551,-3.026095c-17.993211,-3.741811 -46.53353,-3.454998 -60.13187,0.604291c-14.425458,4.306168 -43.573052,23.287078 -51.95455,33.832776c-7.509119,9.448002 -14.140787,31.581825 -13.281179,44.32714c0.428355,6.35151 -1.375889,7.963804 -10.434939,9.324777c-6.024025,0.90501 -14.30969,0.947389 -18.412521,0.094177c-4.65785,-0.968632 -7.913772,0.436456 -8.668674,3.740925c-0.896596,3.924716 0.77287,5.076331 6.460946,4.456784l-0.000001,0.000005z" fill="#7f3f00" id="svg_15" stroke="#ffffff" stroke-dasharray="null" stroke-linecap="null" stroke-linejoin="null" stroke-width="2"/>
   <path d="m245.804981,391.454715c-16.981797,-4.195717 -31.399523,-10.063152 -38.62749,-15.719857c-7.743615,-6.060249 -11.018574,-3.276746 -3.50809,2.98164c3.159726,2.632982 0.907445,3.429821 -10.135316,3.585785c-26.347148,0.372119 -42.831921,-11.123052 -56.147942,-39.153166c-11.267381,-23.717633 -23.794828,-41.143976 -34.713654,-48.28846l-8.89754,-5.821869l15.32032,-0.216379c18.943806,-0.267556 47.641594,4.373967 60.463644,9.779269c13.601956,5.734058 38.854563,25.690065 45.011881,35.570855c5.516452,8.852312 7.395529,27.89787 3.763221,38.142312c-1.810104,5.105227 -0.341882,6.696615 8.49154,9.203869c5.873989,1.667257 14.214243,2.981467 18.533829,2.920459c4.903928,-0.069261 7.879973,1.577629 7.923526,4.384713c0.051728,3.333973 -1.880522,4.013769 -7.477929,2.630823l0,0.000005z" fill="#7f3f00" id="svg_16" stroke="#ffffff" stroke-dasharray="null" stroke-linecap="null" stroke-linejoin="null" stroke-width="2"/>
   <path d="m287.862775,25.993051l28.73498,0l8.87933,-26.045031l8.879335,26.045031l28.734975,0l-23.247045,16.09653l8.879789,26.045031l-23.247055,-16.096969l-23.24705,16.096969l8.879792,-26.045031l-23.247052,-16.09653z" fill="#7f3f00" id="svg_18" stroke="#ffffff" stroke-dasharray="null" stroke-linecap="null" stroke-linejoin="null" stroke-width="2"/>
   <circle cx="331.163386" cy="222.601888" fill="none" id="svg_20" r="152.045776" stroke="#7f3f00" stroke-dasharray="null" stroke-linecap="null" stroke-linejoin="null" stroke-width="2"/>
   <path d="m316.017085,69.865695c2.442332,-3.715007 6.845727,-6.885769 10.591803,-10.032534c4.357761,2.019395 8.122622,6.462027 11.398076,9.556225c-2.921486,3.578989 -7.126907,6.838469 -10.915437,10.04819c-4.084105,-2.936593 -7.576678,-6.29171 -11.074441,-9.571881l-0.000001,0z" fill="#7f3f00" id="svg_22" stroke="#ffffff" stroke-dasharray="null" stroke-linecap="null" stroke-linejoin="null" stroke-width="2"/>
   <path d="m160.740283,216.275759c2.442332,-3.715007 6.845727,-6.885769 10.591803,-10.032534c4.357761,2.019395 8.122622,6.462027 11.398076,9.556225c-2.921486,3.578989 -7.126907,6.838469 -10.915437,10.04819c-4.084105,-2.936593 -7.576678,-6.29171 -11.074441,-9.571881l-0.000001,0z" fill="#7f3f00" id="svg_26" stroke="#ffffff" stroke-dasharray="null" stroke-linecap="null" stroke-linejoin="null" stroke-width="2"/>
   <path d="m478.9066,217.587039c2.442332,-3.715007 6.845727,-6.885769 10.591803,-10.032534c4.357761,2.019395 8.122622,6.462027 11.398076,9.556225c-2.921486,3.578989 -7.126907,6.838469 -10.915437,10.04819c-4.084105,-2.936593 -7.576678,-6.29171 -11.074441,-9.571881l-0.000001,0z" fill="#7f3f00" id="svg_27" stroke="#ffffff" stroke-dasharray="null" stroke-linecap="null" stroke-linejoin="null" stroke-width="2"/>
   <path d="m323.602955,373.629378c2.442332,-3.715007 6.845727,-6.885769 10.591803,-10.032534c4.357761,2.019395 8.122622,6.462027 11.398076,9.556225c-2.921486,3.578989 -7.126907,6.838469 -10.915437,10.04819c-4.084105,-2.936593 -7.576678,-6.29171 -11.074441,-9.571881l-0.000001,0z" fill="#7f3f00" id="svg_28" stroke="#ffffff" stroke-dasharray="null" stroke-linecap="null" stroke-linejoin="null" stroke-width="2"/>
   <path d="m277.089702,443.201171l1.657413,-2.738746l2.870513,-1.581332l3.314826,0l2.870513,1.581332l1.657412,2.738746l0,3.162664l-1.657412,2.738746l-2.870513,1.581331l-3.314826,0l-2.870513,-1.581331l-1.657413,-2.738746l0,-3.162664z" fill="#7f3f00" id="svg_29" stroke="#ffffff" stroke-dasharray="null" stroke-linecap="null" stroke-linejoin="null" stroke-width="2"/>
   <path d="m369.644833,442.955306l1.657413,-2.738746l2.870513,-1.581332l3.314826,0l2.870513,1.581332l1.657412,2.738746l0,3.162664l-1.657412,2.738746l-2.870513,1.581331l-3.314826,0l-2.870513,-1.581331l-1.657413,-2.738746l0,-3.162664z" fill="#7f3f00" id="svg_31" stroke="#ffffff" stroke-dasharray="null" stroke-linecap="null" stroke-linejoin="null" stroke-width="2"/>
  </g>
 </g>
</svg>